<svg id="Layer_1" data-name="Layer 1" xmlns="http://www.w3.org/2000/svg" viewBox="0 0 1342 442.37">
    <defs>
        <style>
            .cls-1 {
                fill: none;
            }

            .cls-2 {
                fill: #fff;
            }

            .cls-3 {
                fill: #df5bd3;
            }

            .cls-4 {
                fill: #7e5bf6;
            }
        </style>
    </defs>
    <path class="cls-1"
        d="M77.91,336.92c-5,0-8.76-1.37-11.37-4.11s-3.92-6.73-3.92-12V71.54q0-7.85,3.92-12.15a13.12,13.12,0,0,1,10.2-4.32c4.17,0,7.25.73,9.21,2.16a35,35,0,0,1,6.86,7.64L263.72,292.63h-9.41V70.75q0-7.44,3.92-11.56t11.37-4.12c4.71,0,8.29,1.38,10.78,4.12s3.72,6.6,3.72,11.56V321.24q0,7.45-3.33,11.57t-9.6,4.11q-5.88,0-9.41-2.35a33.17,33.17,0,0,1-7.45-7.45L83.79,99.37h9V320.85q0,7.84-3.92,12C86.27,335.55,82.62,336.92,77.91,336.92Z" />
    <path class="cls-2"
        d="M390.73,407.48q-5.88,0-9.41-3.14a12.67,12.67,0,0,1-4.12-8.42A21.12,21.12,0,0,1,379,385.14l27-60.76V338.1L330.75,163.27a20.77,20.77,0,0,1-1.57-11,12.6,12.6,0,0,1,4.71-8.23c2.6-2.09,6.27-3.14,11-3.14q6.27,0,9.8,2.75t6.27,9.8l64.29,157.58H414.64l65.07-157.58q3.14-7.07,6.66-9.8t10.19-2.75q6.27,0,9.61,3.14a12.73,12.73,0,0,1,3.92,8,22.1,22.1,0,0,1-1.76,10.78L408,394.94q-3.14,7.05-6.86,9.8T390.73,407.48Z" />
    <path class="cls-2"
        d="M617.3,337.71q-23.13,0-38.22-8.43T556.34,304q-7.64-16.85-7.64-41.94V157q0-8.22,4.11-12.15t11.57-3.92q7.83,0,12,3.92T580.45,157V261.66q0,25.08,10.39,37.43t32.73,12.35q24.3,0,39.59-16.46t15.29-43.12V157q0-8.22,4.12-12.15t11.95-3.92q7.44,0,11.57,3.92T710.2,157V320.46q0,16.46-15.29,16.46-7.44,0-11.56-4.31t-4.12-12.15V284.79l5.1,5.48q-7.85,23.14-25.68,35.28T617.3,337.71Z" />
    <path class="cls-2"
        d="M846.22,337.71q-22.34,0-37.43-8a50.92,50.92,0,0,1-22.54-23.52q-7.46-15.48-7.45-37.83v-100H752.53q-6.66,0-10.19-3.33t-3.53-9.21q0-5.88,3.53-9t10.19-3.13H778.8V98.59q0-7.84,4.31-12t11.76-4.12q7.44,0,11.56,4.12t4.12,12v45.08h49.39q6.66,0,10.19,3.13t3.53,9q0,5.88-3.53,9.21t-10.19,3.33H810.55v96.82q0,22.35,9.41,33.91t30.57,11.57a45,45,0,0,0,12.74-1.57,32.48,32.48,0,0,1,8.82-1.57,6.42,6.42,0,0,1,5.88,2.35q2.35,2.75,2.36,9.41a20.72,20.72,0,0,1-1.77,8.63,10.1,10.1,0,0,1-6.07,5.48,91.92,91.92,0,0,1-12.35,2.94A79,79,0,0,1,846.22,337.71Z" />
    <path class="cls-2"
        d="M967,337.71q-19.61,0-35.08-7.65a61.91,61.91,0,0,1-24.5-21,52,52,0,0,1-9-29.79q0-21.18,10.78-33.32t35.68-17.25q24.88-5.08,68-5.1h17.64v20.78h-17.25q-31.76,0-50,2.94t-25.48,10q-7.26,7.07-7.25,20,0,16.08,11.17,26.26t30.38,10.19q15.68,0,27.64-7.45A52.48,52.48,0,0,0,1018.5,286q6.86-12.93,6.86-29.79V211.48q0-24.3-9.8-35.08t-32.14-10.78A109.37,109.37,0,0,0,956,169.15a141.19,141.19,0,0,0-29,11.36q-5.49,2.75-9.41,1.77a10.86,10.86,0,0,1-6.27-4.12,13.94,13.94,0,0,1-2.74-7.25,13.62,13.62,0,0,1,1.76-8,15.32,15.32,0,0,1,6.86-6.27,155.11,155.11,0,0,1,34.1-12.54,142.25,142.25,0,0,1,32.15-3.92q24.69,0,40.77,8a51.46,51.46,0,0,1,23.91,24.31q7.83,16.26,7.84,41.75V320.46q0,7.85-3.73,12.15t-10.78,4.31q-7.44,0-11.36-4.31t-3.92-12.15V289.88h3.52a57.51,57.51,0,0,1-12,25.48A60.4,60.4,0,0,1,996,331.83,69.3,69.3,0,0,1,967,337.71Z" />
    <path class="cls-2"
        d="M1211.17,337.71q-25.87,0-44.49-13.33a63.71,63.71,0,0,1-24.89-35.67l4.31-4.32v36.07q0,7.85-4.12,12.15t-11.56,4.31q-7.85,0-11.76-4.31t-3.92-12.15V71.15q0-7.85,3.92-12t11.76-4.12q7.44,0,11.76,4.12t4.31,12V188h-4.7a64.22,64.22,0,0,1,25.08-34.89q18.42-12.93,44.3-12.93t44.69,12q18.81,12,29.2,34.11t10.39,52.72q0,30.2-10.39,52.33t-29.4,34.3Q1236.64,337.72,1211.17,337.71Zm-6.67-25.48q18,0,31.17-8.63t20.38-25.09q7.26-16.45,7.26-39.59,0-35.67-15.88-54.49t-42.93-18.81q-17.62,0-31,8.43T1153,198.74q-7.26,16.27-7.25,40.18,0,35.28,16.07,54.29T1204.5,312.23Z" />
    <rect class="cls-3" x="163.34" y="85.76" width="45" height="292.11" rx="22.5"
        transform="translate(-102.47 160.02) rotate(-37.3)" />
    <rect class="cls-4" x="237.5" y="96.08" width="45" height="139" rx="22.5"
        transform="translate(520 331.15) rotate(180)" />
    <rect class="cls-4" x="85" y="232.08" width="45" height="128" rx="22.5"
        transform="translate(215 592.15) rotate(180)" />
</svg>